<?xml version="1.0" standalone="no"?>
<!DOCTYPE svg PUBLIC "-//W3C//DTD SVG 20010904//EN"
 "http://www.w3.org/TR/2001/REC-SVG-20010904/DTD/svg10.dtd">
<svg version="1.0" xmlns="http://www.w3.org/2000/svg"
 width="300.000000pt" height="300.000000pt" viewBox="0 0 300.000000 300.000000"
 preserveAspectRatio="xMidYMid meet">
<metadata>
Created by potrace 1.14, written by Peter Selinger 2001-2017
</metadata>
<g transform="translate(0.000000,300.000000) scale(0.100000,-0.100000)"
fill="#000000" stroke="none">
<path d="M388 2004 c-20 -7 -60 -13 -90 -13 -132 1 -226 -2 -261 -7 l-37 -6 0
-989 0 -989 85 0 85 0 -7 974 -6 974 29 5 c16 3 88 11 159 18 131 12 197 28
120 29 -30 0 -36 3 -25 10 13 9 13 10 0 9 -8 -1 -31 -7 -52 -15z"/>
<path d="M1428 1924 c-17 -5 -18 -41 -18 -565 l0 -559 -197 2 -198 3 -1 545
c-1 300 -2 551 -3 558 -1 9 -89 12 -406 12 l-405 0 -1 -497 c-1 -274 -3 -660
-5 -858 -2 -198 -1 -406 2 -463 l6 -102 678 0 678 0 5 847 c3 467 10 871 14
898 l9 50 8 -50 c12 -82 24 -613 26 -1197 1 -302 6 -548 10 -548 5 0 7 233 5
518 -1 284 1 490 5 457 4 -33 8 -266 9 -517 l1 -458 43 0 43 0 -7 62 c-10 82
-19 642 -22 1283 -1 393 1 527 10 548 l13 27 -78 0 c-42 0 -106 2 -142 5 -36
2 -73 2 -82 -1z"/>
<path d="M2016 1912 c37 -24 39 -65 38 -837 0 -412 -4 -823 -8 -912 l-7 -163
480 0 481 0 -2 468 c-1 257 -3 437 -5 399 l-4 -67 -425 2 -425 3 -3 75 c-2 41
-4 292 -5 558 l-1 482 -62 0 c-35 0 -58 -4 -52 -8z"/>
</g>
</svg>
